<?xml version="1.0" encoding="UTF-8"?>
<svg version="1.1" xmlns="http://www.w3.org/2000/svg" width="288" height="277">
<path d="M0 0 C95.04 0 190.08 0 288 0 C288 91.41 288 182.82 288 277 C192.96 277 97.92 277 0 277 C0 185.59 0 94.18 0 0 Z " fill="#FEFEFE" transform="translate(0,0)"/>
<path d="M0 0 C7.04035195 0.43487984 11.88799824 6.92991178 16.53417969 11.65527344 C18.34238742 13.46829984 20.24098978 15.14969167 22.1875 16.8125 C26.07651068 20.18242663 29.92360802 23.59516495 33.72265625 27.06640625 C35.03501018 28.25270217 36.36680031 29.41958906 37.74609375 30.52734375 C40.39635326 32.75716549 41.07037555 34.38011136 42 37.75 C41.65789521 43.40541984 36.85750297 46.95010467 32.93359375 50.53515625 C31.96550781 51.38980469 30.99742187 52.24445313 30 53.125 C29.31035156 53.74246094 28.62070313 54.35992187 27.91015625 54.99609375 C26.67286922 56.08689436 25.42661585 57.16760363 24.171875 58.23828125 C20.81243301 61.15664543 17.55883328 64.18983833 14.29907227 67.21875 C5.11839376 75.70121415 5.11839376 75.70121415 0.5 75.75 C-0.2321875 75.78351563 -0.964375 75.81703125 -1.71875 75.8515625 C-4.59416719 74.93576182 -6.1990749 73.40529421 -8.02294922 71.02783203 C-9.87749553 67.41605443 -9.51797235 63.71403575 -9.3125 59.75 C-9.28994141 58.91855469 -9.26738281 58.08710937 -9.24414062 57.23046875 C-9.18563654 55.19452647 -9.09596795 53.15952055 -9 51.125 C-17.67042876 51.38934234 -25.10671676 51.62273254 -31.7109375 57.69921875 C-37.14499014 63.59715393 -39.36116716 69.44795493 -39.43237305 77.43725586 C-39.4425647 78.13078156 -39.45275635 78.82430725 -39.46325684 79.53884888 C-39.49318413 81.8059315 -39.50262111 84.07259025 -39.51171875 86.33984375 C-39.52858057 87.92169069 -39.54673283 89.50352436 -39.56611633 91.08534241 C-39.61345959 95.22970429 -39.64336993 99.37401233 -39.66955566 103.51855469 C-39.69944069 107.75531647 -39.74594358 111.99189301 -39.79101562 116.22851562 C-39.8768702 124.5272524 -39.94429435 132.82600633 -40 141.125 C-39.0500415 141.42591553 -38.10008301 141.72683105 -37.12133789 142.03686523 C-30.09742817 144.48548202 -26.33180447 150.69849035 -22.9453125 157.01171875 C-19.82852639 163.97941001 -19.76805623 171.67409519 -22.31640625 178.8125 C-25.30269931 185.45094285 -28.66698106 191.2505311 -35 195.125 C-35.71671875 195.60582031 -36.4334375 196.08664063 -37.171875 196.58203125 C-44.93047701 201.18394715 -53.13365267 201.4986626 -61.8359375 199.4609375 C-70.21163583 196.49722886 -76.02641228 191.38018467 -80.5 183.75 C-84.24831046 175.61841938 -84.57091248 166.19735758 -82.33203125 157.54296875 C-81.40513502 155.49084479 -80.38884293 153.89557168 -79 152.125 C-78.45601562 151.41859375 -77.91203125 150.7121875 -77.3515625 149.984375 C-74.30506367 146.28600524 -71.43084836 143.15053068 -67 141.125 C-66.34 141.125 -65.68 141.125 -65 141.125 C-65.00888245 140.23931839 -65.01776489 139.35363678 -65.0269165 138.44111633 C-65.10748906 130.04230134 -65.16817942 121.64361852 -65.20724869 113.24450397 C-65.22801075 108.92772576 -65.25611657 104.61127028 -65.30175781 100.29467773 C-65.34562656 96.1189837 -65.36922237 91.94359758 -65.37950897 87.76769066 C-65.38682754 86.18467559 -65.4011161 84.60167493 -65.42292023 83.01879311 C-65.61016983 68.84516142 -63.2660013 56.93657039 -55 45.125 C-54.59523438 44.51269531 -54.19046875 43.90039062 -53.7734375 43.26953125 C-46.26144743 33.1997777 -33.05279693 27.14755839 -21 25.125 C-16.96967984 24.86311796 -13.02891789 24.85935706 -9 25.125 C-9.05800781 23.89523438 -9.11601563 22.66546875 -9.17578125 21.3984375 C-9.22270005 19.76566312 -9.26819794 18.13284748 -9.3125 16.5 C-9.35439453 15.69175781 -9.39628906 14.88351563 -9.43945312 14.05078125 C-9.52479208 9.85210458 -9.37431816 6.9903835 -6.73046875 3.609375 C-2.95377829 0.17307295 -2.95377829 0.17307295 0 0 Z " fill="#0585C7" transform="translate(131,30.875)"/>
<path d="M0 0 C1.4540625 0.86625 1.4540625 0.86625 2.9375 1.75 C3.9275 2.306875 4.9175 2.86375 5.9375 3.4375 C13.30212643 9.11439954 19.06434155 16.17880757 20.31640625 25.6015625 C20.70637289 35.33814895 18.35810015 43.31018149 12 50.75 C9.24683025 53.72758319 6.5319746 55.85505458 2.9375 57.75 C2.2775 57.75 1.6175 57.75 0.9375 57.75 C0.94194122 58.63203598 0.94638245 59.51407196 0.95095825 60.4228363 C0.99115052 68.76407464 1.02154294 77.10528011 1.04112434 85.44659328 C1.05152998 89.73421318 1.0656299 94.02175259 1.08837891 98.30932617 C1.11022273 102.45255886 1.12209281 106.59571446 1.12725449 110.73900032 C1.13092963 112.31412022 1.13810591 113.88923625 1.14896011 115.46432304 C1.25760049 131.89343463 -1.5422536 146.24230391 -13.0625 158.75 C-25.46058802 169.76046746 -38.87789388 173.25055483 -55.0625 172.75 C-55.01609375 174.06355469 -54.9696875 175.37710938 -54.921875 176.73046875 C-54.88434734 178.46612304 -54.84794825 180.20180199 -54.8125 181.9375 C-54.77898437 182.80181641 -54.74546875 183.66613281 -54.7109375 184.55664062 C-54.64721214 188.71472067 -54.69477613 191.11669778 -56.8203125 194.77734375 C-59.81142807 197.40890013 -61.65241993 198.03455338 -65.57421875 198.265625 C-70.9325055 197.15527359 -74.37908312 192.53019908 -78.0625 188.75 C-79.67599536 187.27894805 -81.30097038 185.82038296 -82.9375 184.375 C-86.78489988 180.91112258 -90.61698702 177.43097427 -94.4375 173.9375 C-94.93749512 173.48133301 -95.43749023 173.02516602 -95.95263672 172.55517578 C-97.32917401 171.29393104 -98.69610718 170.02222792 -100.0625 168.75 C-100.82046875 168.06808594 -101.5784375 167.38617188 -102.359375 166.68359375 C-104.85188286 163.85379699 -104.99341112 161.93246009 -104.8359375 158.25 C-103.15332535 152.81125366 -98.24971068 149.35196654 -94.0625 145.75 C-93.39476562 145.15574219 -92.72703125 144.56148437 -92.0390625 143.94921875 C-90.79157336 142.84648046 -89.53479243 141.7541758 -88.26953125 140.671875 C-84.90118651 137.73873233 -81.63363991 134.69657667 -78.36181641 131.65649414 C-69.18703037 123.17935822 -69.18703037 123.17935822 -64.5625 123.1875 C-63.8303125 123.16558594 -63.098125 123.14367187 -62.34375 123.12109375 C-58.67658173 124.13207678 -57.29068884 125.68575427 -55.0625 128.75 C-54.46823233 132.04712043 -54.58828497 135.22619462 -54.75 138.5625 C-54.77255859 139.44615234 -54.79511719 140.32980469 -54.81835938 141.24023438 C-54.87702572 143.4108891 -54.96670021 145.5806669 -55.0625 147.75 C-42.94478103 147.19560966 -42.94478103 147.19560966 -32.609375 141.53515625 C-27.27755436 135.3820198 -24.95820454 130.1296743 -24.85375977 121.95532227 C-24.84397598 121.26880585 -24.8341922 120.58228943 -24.82411194 119.87496948 C-24.79422112 117.60546803 -24.77279469 115.33602499 -24.75390625 113.06640625 C-24.74404851 111.90305409 -24.74404851 111.90305409 -24.73399162 110.71619987 C-24.70143154 106.61379697 -24.67696818 102.51141976 -24.6574707 98.40893555 C-24.63963104 95.01271971 -24.60476572 91.61733007 -24.55493164 88.22143555 C-24.49481786 84.12004614 -24.46400866 80.01942486 -24.45429802 75.91761589 C-24.44573031 74.35503126 -24.42687941 72.79246789 -24.3975544 71.23013496 C-24.35871519 69.04386549 -24.35759212 66.86060368 -24.36547852 64.67407227 C-24.35517105 63.43069595 -24.34486359 62.18731964 -24.33424377 60.90626526 C-24.77728445 57.4886135 -24.77728445 57.4886135 -27.94200134 55.46568298 C-28.9717659 54.8995076 -30.00153046 54.33333221 -31.0625 53.75 C-37.44321987 47.97696773 -41.51927854 41.89630858 -42.43359375 33.234375 C-42.58410355 24.77041217 -41.88060834 18.79086231 -37.0625 11.75 C-36.44568359 10.78320312 -36.44568359 10.78320312 -35.81640625 9.796875 C-27.94005549 -0.95422693 -12.32846093 -4.88228873 0 0 Z " fill="#0485C7" transform="translate(227.0625,33.25)"/>
<path d="M0 0 C3 2.0625 3 2.0625 5 5 C5.82563373 9.54098553 5.32543335 11.44066142 3 15.4375 C-0.52771084 18.45075301 -0.52771084 18.45075301 -4 18.6875 C-7.14712898 18.41331831 -8.217958 17.85923546 -11 16.0625 C-13.33953725 12.48008358 -13.74316342 10.30323817 -13.4765625 6.09375 C-13 4 -13 4 -11 1.4375 C-7.15997879 -0.40251016 -4.17716314 -0.96007379 0 0 Z " fill="#F7FBFD" transform="translate(83,191)"/>
<path d="M0 0 C3.55247432 0.87379409 4.94828114 2.4927342 6.9375 5.4765625 C7.33706124 8.28386937 7.17974238 10.61810244 6.9375 13.4765625 C6.2775 13.4765625 5.6175 13.4765625 4.9375 13.4765625 C4.628125 14.1159375 4.31875 14.7553125 4 15.4140625 C2.9375 17.4765625 2.9375 17.4765625 1.9375 18.4765625 C-5.01902174 19.17221467 -5.01902174 19.17221467 -9.0625 16.4765625 C-11.28175086 13.14768621 -11.82140933 11.33719742 -11.5390625 7.4140625 C-10.07519871 1.46261629 -5.59135555 -0.40240816 0 0 Z " fill="#F7FBFD" transform="translate(218.0625,53.5234375)"/>
</svg>
